<mxfile host="app.diagrams.net" modified="2021-05-26T21:20:54.122Z" agent="5.0 (Windows NT 6.1; WOW64) AppleWebKit/537.36 (KHTML, like Gecko) Chrome/90.0.4430.212 Safari/537.36" etag="23v5OBOc3tVqQ5NjT51S" version="14.7.1" type="github">
  <diagram id="Kh-PGwLWouuLRL4zYxV5" name="Page-1">
    <mxGraphModel dx="868" dy="450" grid="1" gridSize="10" guides="1" tooltips="1" connect="1" arrows="1" fold="1" page="1" pageScale="1" pageWidth="850" pageHeight="1100" math="0" shadow="0">
      <root>
        <mxCell id="0" />
        <mxCell id="1" parent="0" />
        <mxCell id="y3vNPTUZ4GtQ7SvDfzAE-3" style="edgeStyle=orthogonalEdgeStyle;rounded=0;orthogonalLoop=1;jettySize=auto;html=1;" parent="1" source="y3vNPTUZ4GtQ7SvDfzAE-1" target="y3vNPTUZ4GtQ7SvDfzAE-2" edge="1">
          <mxGeometry relative="1" as="geometry" />
        </mxCell>
        <mxCell id="y3vNPTUZ4GtQ7SvDfzAE-1" value="start" style="ellipse;whiteSpace=wrap;html=1;" parent="1" vertex="1">
          <mxGeometry x="150" width="120" height="80" as="geometry" />
        </mxCell>
        <mxCell id="y3vNPTUZ4GtQ7SvDfzAE-6" style="edgeStyle=orthogonalEdgeStyle;rounded=0;orthogonalLoop=1;jettySize=auto;html=1;entryX=0.5;entryY=0;entryDx=0;entryDy=0;" parent="1" source="y3vNPTUZ4GtQ7SvDfzAE-2" target="y3vNPTUZ4GtQ7SvDfzAE-5" edge="1">
          <mxGeometry relative="1" as="geometry">
            <Array as="points">
              <mxPoint x="195" y="330" />
              <mxPoint x="195" y="330" />
            </Array>
          </mxGeometry>
        </mxCell>
        <mxCell id="y3vNPTUZ4GtQ7SvDfzAE-2" value="a=[32,45,85,321,75,2,47,63,45,29]&lt;br&gt;i=0&lt;br&gt;n=1" style="shape=parallelogram;perimeter=parallelogramPerimeter;whiteSpace=wrap;html=1;fixedSize=1;" parent="1" vertex="1">
          <mxGeometry x="80" y="140" width="260" height="130" as="geometry" />
        </mxCell>
        <mxCell id="y3vNPTUZ4GtQ7SvDfzAE-10" value="" style="edgeStyle=orthogonalEdgeStyle;rounded=0;orthogonalLoop=1;jettySize=auto;html=1;" parent="1" source="y3vNPTUZ4GtQ7SvDfzAE-5" edge="1">
          <mxGeometry relative="1" as="geometry">
            <mxPoint x="380" y="490" as="targetPoint" />
          </mxGeometry>
        </mxCell>
        <mxCell id="y3vNPTUZ4GtQ7SvDfzAE-28" value="" style="edgeStyle=orthogonalEdgeStyle;rounded=0;orthogonalLoop=1;jettySize=auto;html=1;" parent="1" source="y3vNPTUZ4GtQ7SvDfzAE-5" edge="1">
          <mxGeometry relative="1" as="geometry">
            <mxPoint x="200" y="640" as="targetPoint" />
            <Array as="points">
              <mxPoint x="200" y="620" />
              <mxPoint x="200" y="620" />
            </Array>
          </mxGeometry>
        </mxCell>
        <mxCell id="y3vNPTUZ4GtQ7SvDfzAE-5" value="n&amp;lt;a.length" style="rhombus;whiteSpace=wrap;html=1;" parent="1" vertex="1">
          <mxGeometry x="140" y="450" width="110" height="80" as="geometry" />
        </mxCell>
        <mxCell id="y3vNPTUZ4GtQ7SvDfzAE-11" value="true" style="text;html=1;align=center;verticalAlign=middle;resizable=0;points=[];autosize=1;strokeColor=none;" parent="1" vertex="1">
          <mxGeometry x="250" y="460" width="40" height="20" as="geometry" />
        </mxCell>
        <mxCell id="y3vNPTUZ4GtQ7SvDfzAE-24" value="false" style="text;html=1;align=center;verticalAlign=middle;resizable=0;points=[];autosize=1;strokeColor=none;" parent="1" vertex="1">
          <mxGeometry x="140" y="530" width="40" height="20" as="geometry" />
        </mxCell>
        <mxCell id="Rs8c3TWV6c2h5PkWgY3D-41" style="edgeStyle=orthogonalEdgeStyle;rounded=0;orthogonalLoop=1;jettySize=auto;html=1;entryX=0.5;entryY=0;entryDx=0;entryDy=0;" edge="1" parent="1" source="Rs8c3TWV6c2h5PkWgY3D-39" target="Rs8c3TWV6c2h5PkWgY3D-40">
          <mxGeometry relative="1" as="geometry" />
        </mxCell>
        <mxCell id="Rs8c3TWV6c2h5PkWgY3D-45" style="edgeStyle=orthogonalEdgeStyle;rounded=0;orthogonalLoop=1;jettySize=auto;html=1;exitX=0.5;exitY=0;exitDx=0;exitDy=0;entryX=0.5;entryY=1;entryDx=0;entryDy=0;" edge="1" parent="1" source="Rs8c3TWV6c2h5PkWgY3D-39" target="Rs8c3TWV6c2h5PkWgY3D-44">
          <mxGeometry relative="1" as="geometry" />
        </mxCell>
        <mxCell id="Rs8c3TWV6c2h5PkWgY3D-39" value="a[n]=a[i]" style="rhombus;whiteSpace=wrap;html=1;" vertex="1" parent="1">
          <mxGeometry x="380" y="450" width="80" height="80" as="geometry" />
        </mxCell>
        <mxCell id="Rs8c3TWV6c2h5PkWgY3D-40" value="a.splice[i]" style="shape=parallelogram;perimeter=parallelogramPerimeter;whiteSpace=wrap;html=1;fixedSize=1;" vertex="1" parent="1">
          <mxGeometry x="360" y="580" width="120" height="60" as="geometry" />
        </mxCell>
        <mxCell id="Rs8c3TWV6c2h5PkWgY3D-42" value="true" style="text;html=1;align=center;verticalAlign=middle;resizable=0;points=[];autosize=1;strokeColor=none;" vertex="1" parent="1">
          <mxGeometry x="360" y="540" width="40" height="20" as="geometry" />
        </mxCell>
        <mxCell id="Rs8c3TWV6c2h5PkWgY3D-46" style="edgeStyle=orthogonalEdgeStyle;rounded=0;orthogonalLoop=1;jettySize=auto;html=1;" edge="1" parent="1" source="Rs8c3TWV6c2h5PkWgY3D-44">
          <mxGeometry relative="1" as="geometry">
            <mxPoint x="190" y="380" as="targetPoint" />
          </mxGeometry>
        </mxCell>
        <mxCell id="Rs8c3TWV6c2h5PkWgY3D-44" value="n++" style="rounded=0;whiteSpace=wrap;html=1;" vertex="1" parent="1">
          <mxGeometry x="360" y="350" width="120" height="60" as="geometry" />
        </mxCell>
        <mxCell id="Rs8c3TWV6c2h5PkWgY3D-47" value="false" style="text;html=1;align=center;verticalAlign=middle;resizable=0;points=[];autosize=1;strokeColor=none;" vertex="1" parent="1">
          <mxGeometry x="380" y="430" width="40" height="20" as="geometry" />
        </mxCell>
        <mxCell id="Rs8c3TWV6c2h5PkWgY3D-50" value="i&amp;lt;a.length" style="rhombus;whiteSpace=wrap;html=1;" vertex="1" parent="1">
          <mxGeometry x="160" y="640" width="80" height="80" as="geometry" />
        </mxCell>
      </root>
    </mxGraphModel>
  </diagram>
</mxfile>
